<?xml version="1.0" encoding="UTF-8"?>
<svg width="234px" height="135px" viewBox="0 0 234 135" version="1.1" xmlns="http://www.w3.org/2000/svg"
    xmlns:xlink="http://www.w3.org/1999/xlink">
    <title>DA1D1B86-B7DF-41D6-97EF-0A159B6F8515</title>
    <g id="Happylacta" stroke="none" stroke-width="1" fill="none" fill-rule="evenodd">
        <g id="Splash_Screen" transform="translate(-71.000000, -266.000000)" fill-rule="nonzero">
            <g id="Happylacta_white" transform="translate(71.000000, 266.000000)">
                <path
                    d="M3.90920389e-14,125.798235 L2.35019302,125.798235 L2.35019302,113.231694 C3.64685124,115.988379 6.40224995,117.4478 9.84649834,117.4478 C14.5063638,117.4478 18.4361604,114.366799 18.4361604,108.285177 L18.4361604,95.191622 L16.0049262,95.191622 L16.0049262,107.880481 C16.0049262,112.420205 13.5338701,115.177589 9.56285435,115.177589 C6.24016767,115.177589 2.43123416,113.028996 2.43123416,107.394007 L2.43123416,95.191622 L3.90920389e-14,95.191622 L3.90920389e-14,125.798235"
                    id="path16" fill="#E5B0A7"
                    transform="translate(9.218080, 110.494929) scale(-1, 1) rotate(-180.000000) translate(-9.218080, -110.494929) ">
                </path>
                <path
                    d="M44.0451602,115.05597 C44.0451602,120.001089 40.5198707,124.096276 35.4142789,124.096276 C30.3492078,124.096276 26.94548,120.042327 26.94548,114.974892 C26.94548,109.907456 30.3492078,105.813666 35.4142789,105.813666 C40.5198707,105.813666 44.0451602,109.988535 44.0451602,115.05597 Z M46.1927504,125.798235 L46.1927504,104.110309 L43.8425573,104.110309 L43.8425573,108.326416 C42.0191317,105.367033 38.980089,103.583296 35.2927172,103.583296 C29.0937688,103.583296 24.5142458,108.610891 24.5142458,115.05597 C24.5142458,121.501749 29.0937688,126.325249 35.2927172,126.325249 C38.980089,126.325249 42.0191317,124.541511 43.8425573,121.623367 L43.8425573,125.798235 L46.1927504,125.798235"
                    id="path18" fill="#E5B0A7"
                    transform="translate(35.353498, 114.954272) scale(-1, 1) rotate(-180.000000) translate(-35.353498, -114.954272) ">
                </path>
                <path
                    d="M73.4623949,123.325327 C73.4623949,128.392763 70.0181465,132.446711 64.9935959,132.446711 C59.8481822,132.446711 56.3634133,128.271144 56.3634133,123.244248 C56.3634133,118.299129 59.8481822,114.203942 64.9935959,114.203942 C70.0181465,114.203942 73.4623949,118.257891 73.4623949,123.325327 Z M75.893629,123.325327 C75.893629,117.001167 71.3148047,111.974969 65.1158562,111.974969 C61.3474433,111.974969 58.2671814,113.798547 56.4444544,116.798469 L56.4444544,103.542057 L54.0132202,103.542057 L54.0132202,134.148671 L56.4444544,134.148671 L56.4444544,129.730566 C58.2671814,132.852106 61.3474433,134.716923 65.1158562,134.716923 C71.3148047,134.716923 75.893629,129.649487 75.893629,123.325327"
                    id="path20" fill="#E5B0A7"
                    transform="translate(64.953425, 119.129490) scale(-1, 1) rotate(-180.000000) translate(-64.953425, -119.129490) ">
                </path>
                <path
                    d="M101.66541,123.325327 C101.66541,128.392763 98.2211613,132.446711 93.1952135,132.446711 C88.0497998,132.446711 84.5650309,128.271144 84.5650309,123.244248 C84.5650309,118.299129 88.0497998,114.203942 93.1952135,114.203942 C98.2211613,114.203942 101.66541,118.257891 101.66541,123.325327 Z M104.096644,123.325327 C104.096644,117.001167 99.5136278,111.974969 93.3174738,111.974969 C89.5490609,111.974969 86.4694976,113.798547 84.646072,116.798469 L84.646072,103.542057 L82.2148378,103.542057 L82.2148378,134.148671 L84.646072,134.148671 L84.646072,129.730566 C86.4694976,132.852106 89.5490609,134.716923 93.3174738,134.716923 C99.5136278,134.716923 104.096644,129.649487 104.096644,123.325327"
                    id="path22" fill="#E5B0A7"
                    transform="translate(93.155741, 119.129490) scale(-1, 1) rotate(-180.000000) translate(-93.155741, -119.129490) ">
                </path>
                <path
                    d="M127.312136,135 L118.15309,111.691193 C116.050212,106.258203 114.101033,104.110309 110.74062,104.110309 C109.525003,104.110309 108.428153,104.434625 107.617742,104.880559 L107.988016,107.029152 C108.798427,106.663598 109.608839,106.379821 110.656784,106.379821 C113.011169,106.379821 114.506238,108.447335 115.847609,111.933731 L116.371582,113.312074 L107.135687,135 L109.811441,135 L117.545281,116.474154 L124.636381,135 L127.312136,135"
                    id="path24" fill="#E5B0A7"
                    transform="translate(117.223911, 119.555155) scale(-1, 1) rotate(-180.000000) translate(-117.223911, -119.555155) ">
                </path>
                <polyline id="path26" fill="#E5B0A7"
                    transform="translate(133.676659, 110.494929) scale(-1, 1) rotate(-180.000000) translate(-133.676659, -110.494929) "
                    points="132.461042 95.191622 132.461042 125.798235 134.892277 125.798235 134.892277 95.191622 132.461042 95.191622">
                </polyline>
                <path
                    d="M160.783523,115.05597 C160.783523,120.001089 157.255439,124.096276 152.155436,124.096276 C147.090365,124.096276 143.681048,120.042327 143.681048,114.974892 C143.681048,109.907456 147.090365,105.813666 152.155436,105.813666 C157.255439,105.813666 160.783523,109.988535 160.783523,115.05597 Z M162.928319,125.798235 L162.928319,104.110309 L160.58092,104.110309 L160.58092,108.326416 C158.757495,105.367033 155.718452,103.583296 152.029683,103.583296 C145.83283,103.583296 141.249814,108.610891 141.249814,115.05597 C141.249814,121.501749 145.83283,126.325249 152.029683,126.325249 C155.718452,126.325249 158.757495,124.541511 160.58092,121.623367 L160.58092,125.798235 L162.928319,125.798235"
                    id="path28" fill="#E5B0A7"
                    transform="translate(152.089066, 114.954272) scale(-1, 1) rotate(-180.000000) translate(-152.089066, -114.954272) ">
                </path>
                <path
                    d="M169.33476,114.893114 C169.33476,121.582129 174.071475,126.28401 180.638602,126.28401 C184.893262,126.28401 188.65888,124.136117 190.321621,120.689561 L188.33751,119.554456 C186.877372,122.2713 183.999015,124.055038 180.638602,124.055038 C175.531613,124.055038 171.765995,120.284865 171.765995,114.893114 C171.765995,109.582441 175.412846,105.812269 180.394081,105.812269 C183.754494,105.812269 186.835455,107.717624 188.211757,110.312152 L190.202854,109.095967 C188.456277,105.73119 184.606823,103.583296 180.394081,103.583296 C173.952708,103.583296 169.33476,108.285177 169.33476,114.893114"
                    id="path30" fill="#E5B0A7"
                    transform="translate(179.828191, 114.933653) scale(-1, 1) rotate(-180.000000) translate(-179.828191, -114.933653) ">
                </path>
                <path
                    d="M209.443138,98.3131625 C207.864233,97.0557394 205.761355,96.4483461 203.693409,96.4483461 C199.236146,96.4483461 197.1682,99.4475692 197.1682,104.028531 L197.1682,116.474154 L193.318746,116.474154 L193.318746,118.622047 L197.210118,118.622047 L197.210118,126.28401 L199.599434,126.28401 L199.599434,118.622047 L208.513959,118.622047 L208.513959,116.474154 L199.599434,116.474154 L199.599434,103.947452 C199.599434,100.582675 200.975736,98.6773189 203.896012,98.6773189 C205.558752,98.6773189 207.137657,99.2455707 208.43711,100.177979 L209.443138,98.3131625"
                    id="path32" fill="#E5B0A7"
                    transform="translate(201.380942, 111.366178) scale(-1, 1) rotate(-180.000000) translate(-201.380942, -111.366178) ">
                </path>
                <path
                    d="M231.855204,115.05597 C231.855204,120.001089 228.32712,124.096276 223.227118,124.096276 C218.162046,124.096276 214.75273,120.042327 214.75273,114.974892 C214.75273,109.907456 218.162046,105.813666 223.227118,105.813666 C228.32712,105.813666 231.855204,109.988535 231.855204,115.05597 Z M234,125.798235 L234,104.110309 L231.652602,104.110309 L231.652602,108.326416 C229.829176,105.367033 226.790133,103.583296 223.101364,103.583296 C216.904512,103.583296 212.321495,108.610891 212.321495,115.05597 C212.321495,121.501749 216.904512,126.325249 223.101364,126.325249 C226.790133,126.325249 229.829176,124.541511 231.652602,121.623367 L231.652602,125.798235 L234,125.798235"
                    id="path34" fill="#E5B0A7"
                    transform="translate(223.160748, 114.954272) scale(-1, 1) rotate(-180.000000) translate(-223.160748, -114.954272) ">
                </path>
                <path
                    d="M132.202549,13.0062037 C127.067615,7.86537738 120.060351,4.67184437 112.270621,4.67184437 C104.487877,4.67184437 97.480613,7.86537738 92.3386925,12.9286195 C87.2778131,17.9918616 84.0857703,25.0806801 84.0857703,32.8698532 C84.0857703,45.1777811 97.7880104,61.0685609 107.680618,72.519568 C109.315414,74.4668613 110.866373,76.2582872 112.270621,77.9721289 C113.674868,76.2582872 115.232814,74.4668613 116.86761,72.5971522 C126.753231,61.1461451 140.453375,45.3336484 140.453375,32.9481363 C140.453375,25.1582643 137.26762,18.1477289 132.202549,13.0062037 L132.202549,13.0062037 Z M119.899666,75.0903306 C117.56624,77.8162616 115.463362,80.2311569 113.828567,82.2567333 C113.751717,82.4126007 113.598019,82.4901848 113.514183,82.567769 C112.661854,83.2688226 111.411305,83.1136542 110.712675,82.2567333 C109.077879,80.2311569 106.975002,77.8162616 104.641576,75.0903306 C94.3633237,63.1717215 80.1147545,46.6574724 80.1147545,32.8698532 C80.1147545,23.9896087 83.6966331,15.9662851 89.5357869,10.1244053 C95.3756393,4.3601097 103.398013,0.698974678 112.270621,0.698974678 C121.150215,0.698974678 129.163506,4.28182655 135.004057,10.1244053 C140.844608,15.9662851 144.428583,23.9896087 144.428583,32.8698532 C144.428583,46.6574724 130.176521,63.1717215 119.899666,75.0903306"
                    id="path36" fill="#E5B0A7"
                    transform="translate(112.271669, 41.854240) scale(-1, 1) rotate(-180.000000) translate(-112.271669, -41.854240) ">
                </path>

                <path
                    d="M98.1233531,68.3342121 C97.3478732,67.5632629 97.3478732,66.351272 98.1233531,65.5803228 C102.30815,61.3942714 107.813358,59.3008961 113.095005,59.3008961 C118.544323,59.3561137 124.000627,61.3942714 128.185424,65.5803228 C128.953917,66.351272 128.953917,67.5632629 128.185424,68.3342121 C127.409944,69.1058603 126.201313,69.1058603 125.43282,68.3342121 C122.016516,64.9191098 117.559254,63.2115587 113.150895,63.2115587 C108.749523,63.2115587 104.285274,64.9191098 100.875957,68.3342121 C100.107464,69.1058603 98.8918466,69.1058603 98.1233531,68.3342121"
                    id="path40" fill="#E5B0A7"
                    transform="translate(113.151769, 64.106922) scale(-1, 1) rotate(-180.000000) translate(-113.151769, -64.106922) ">
                </path>

                <path
                    d="M107.352262,40.6780695 C107.568837,40.8926492 107.568837,41.2295463 107.352262,41.444126 C106.185549,42.6092867 104.655548,43.1915176 103.188424,43.1915176 C101.672396,43.1761406 100.149382,42.6092867 98.9896549,41.444126 C98.7730794,41.2295463 98.7730794,40.8926492 98.9896549,40.6780695 C99.2062304,40.4634898 99.541573,40.4634898 99.7511621,40.6780695 C100.7013,41.6286505 101.944862,42.1032421 103.167465,42.1032421 C104.397055,42.1032421 105.640617,41.6286505 106.583768,40.6780695 C106.800344,40.4634898 107.135687,40.4634898 107.352262,40.6780695"
                    id="path44" fill="#E5B0A7"
                    transform="translate(103.170958, 41.854326) scale(-1, 1) rotate(-180.000000) translate(-103.170958, -41.854326) ">
                </path>
                <path
                    d="M107.352262,40.6778983 L107.673632,40.3570772 C107.869249,40.5485913 107.967057,40.8058074 107.967057,41.0609265 C107.967057,41.3174436 107.869249,41.5739607 107.673632,41.7647759 C106.423083,43.0180052 104.774315,43.6456683 103.188424,43.6456683 L103.181438,43.6456683 C101.553629,43.6302912 99.9188335,43.0194031 98.6682849,41.7654749 C98.4726683,41.5746597 98.37486,41.3174436 98.37486,41.0609265 C98.37486,40.8058074 98.4726683,40.5478923 98.6682849,40.3563782 C98.8569151,40.1641651 99.1154084,40.0621175 99.3739017,40.0628129 C99.6254087,40.0621175 99.8839019,40.1641651 100.072532,40.3563782 C100.938834,41.2195897 102.063629,41.6487491 103.167465,41.6487491 C104.278288,41.6487491 105.403083,41.2195897 106.262398,40.3563782 C106.458015,40.1641651 106.716508,40.0621175 106.968015,40.0628129 C107.226509,40.0621175 107.485002,40.1641651 107.673632,40.3563782 L107.352262,40.6778983 L107.030892,40.9994184 L106.968015,40.9714601 L106.905139,40.9987194 C105.871165,42.03667 104.515822,42.5580917 103.167465,42.5573928 C101.826095,42.5580917 100.470752,42.03667 99.4297921,40.9994184 L99.3739017,40.9714601 L99.3110249,40.9987194 L99.2830797,41.0609265 L99.3110249,41.1224347 C100.386916,42.198828 101.784177,42.7223465 103.188424,42.7370246 L103.188424,42.7370246 C104.536781,42.7377236 105.955001,42.2002259 107.030892,41.1231337 L107.058837,41.0609265 L107.030892,40.9987194 L107.352262,40.6778983"
                    id="path46" fill="#E5B0A7"
                    transform="translate(103.170958, 41.854241) scale(-1, 1) rotate(-180.000000) translate(-103.170958, -41.854241) ">
                </path>
                <path
                    d="M126.948848,40.6780695 C127.165423,40.8926492 127.165423,41.2295463 126.948848,41.444126 C125.789121,42.6092867 124.252134,43.1915176 122.78501,43.1915176 C121.268982,43.1761406 119.752954,42.6092867 118.586241,41.444126 C118.369665,41.2295463 118.369665,40.8926492 118.586241,40.6780695 C118.802816,40.4634898 119.138159,40.4634898 119.354734,40.6780695 C120.304872,41.6286505 121.541448,42.1032421 122.771037,42.1032421 C123.993641,42.1032421 125.237203,41.6286505 126.18734,40.6780695 C126.39693,40.4634898 126.739259,40.4634898 126.948848,40.6780695"
                    id="path48" fill="#E5B0A7"
                    transform="translate(122.767544, 41.854326) scale(-1, 1) rotate(-180.000000) translate(-122.767544, -41.854326) ">
                </path>
                <path
                    d="M126.948848,40.6778983 L127.270218,40.3570772 C127.465834,40.5485913 127.563643,40.8058074 127.563643,41.0609265 C127.563643,41.3174436 127.465834,41.5739607 127.270218,41.7647759 C126.019669,43.0180052 124.370901,43.6456683 122.78501,43.6456683 L122.778024,43.6456683 C121.157201,43.6302912 119.515419,43.0194031 118.264871,41.7654749 C118.07624,41.5746597 117.971446,41.3174436 117.971446,41.0609265 C117.971446,40.8058074 118.069254,40.5478923 118.264871,40.3563782 C118.453501,40.1641651 118.711994,40.0621175 118.970487,40.0628129 C119.221994,40.0621175 119.480488,40.1641651 119.669118,40.3563782 C120.53542,41.2195897 121.660215,41.6487491 122.771037,41.6487491 C123.874873,41.6487491 124.999669,41.2195897 125.86597,40.3563782 C126.054601,40.1641651 126.313094,40.0621175 126.564601,40.0628129 C126.823094,40.0621175 127.081588,40.1641651 127.270218,40.3563782 L126.948848,40.6778983 L126.627478,40.9994184 L126.564601,40.9714601 L126.50871,40.9987194 C125.467751,42.03667 124.112408,42.5580917 122.771037,42.5573928 C121.429667,42.5580917 120.067337,42.03667 119.033364,40.9994184 L118.970487,40.9714601 L118.907611,40.9987194 L118.879665,41.0609265 L118.907611,41.1224347 C119.983502,42.198828 121.380763,42.7223465 122.78501,42.7370246 L122.78501,42.7370246 C124.133367,42.7377236 125.551587,42.2002259 126.627478,41.1231337 L126.655423,41.0609265 L126.627478,40.9987194 L126.948848,40.6778983"
                    id="path50" fill="#E5B0A7"
                    transform="translate(122.767544, 41.854241) scale(-1, 1) rotate(-180.000000) translate(-122.767544, -41.854241) ">
                </path>
            </g>
        </g>
    </g>
</svg>